<?xml version="1.0" encoding="utf-8"?>
<!-- Generator: Adobe Illustrator 21.0.0, SVG Export Plug-In . SVG Version: 6.00 Build 0)  -->
<svg version="1.1" id="Capa_1" xmlns="http://www.w3.org/2000/svg" xmlns:xlink="http://www.w3.org/1999/xlink" x="0px" y="0px"
	 viewBox="0 0 750 800" style="enable-background:new 0 0 750 800;" xml:space="preserve">
<style type="text/css">
	.st0{fill:#666666;stroke:#000000;stroke-width:1.6253;stroke-miterlimit:10;}
	.st1{fill:#D346C9;stroke:#000000;stroke-width:1.6253;stroke-miterlimit:10;}
	.st2{fill:#CCCCCC;stroke:#000000;stroke-width:1.3469;stroke-miterlimit:10;}
	.st3{fill:#CCCCCC;}
	.st4{fill:#D346C9;stroke:#000000;stroke-width:1.4396;stroke-miterlimit:10;}
	.st5{fill:#D346C9;stroke:#000000;stroke-width:1.2857;stroke-miterlimit:10;}
	.st6{fill:#D346C9;}
</style>
<polyline class="st0" points="148.8,658 100.7,703.9 100.7,110.4 147.6,13 "/>
<path class="st1" d="M223.7,678.6c0,0,8.8,70.3-2.9,95.6l-5.6,12.7c-1.4,3.2,0.5,7.1,3.4,7.1h34.5c0.9,0,1.8-0.4,2.5-1.1
	c3.6-3.7,13.8-15.5,2.4-20.3c-0.4-0.2-0.9-0.2-1.3-0.2c-2.4,0.1-10.3,0.5-14,3.6c-4.4,3.6,5.9-75.8,0-97.4"/>
<path class="st1" d="M453.6,684.1c0,0,8.8,70.3-2.9,95.6l-5.6,12.7c-1.4,3.2,0.5,7.1,3.4,7.1H483c0.9,0,1.8-0.4,2.5-1.1
	c3.6-3.7,13.8-15.5,2.4-20.3c-0.4-0.2-0.9-0.2-1.3-0.2c-2.4,0.1-10.3,0.5-14,3.6c-4.4,3.6,5.9-75.8,0-97.4"/>
<path class="st1" d="M132.9,291.3l-0.3,142.9c0,1.2,0.2,2.4,0.5,3.6l0.8,3.1c0.3,1.2,0.8,2.4,1.4,3.5c12.7,21.2-7.8,24-17.4,24.2
	c-3.3,0.1-6.5-1.7-8.4-5c-5.5-9.3,0.1-18.2,4.6-23.2c2.6-2.9,3.9-7.2,3.4-11.6c-4.6-35.2-3.2-123.7-2.8-143c0.1-2.7,0.8-5.3,2.2-7.5
	c2.8-4.5,9.5-10.7,14.5-5.8"/>
<path class="st1" d="M659.4,264.7l34.4,168.7c0,0,10.3,1.8,4.4,12.6c-4.9,9-19,23.4-20.5-5.4c-1.4-27.9-17.2-101.5-17.2-101.5
	L659.4,264.7z"/>
<polyline class="st0" points="651.3,662.4 148.8,658 100,704.8 622,704.8 651.3,662.4 "/>
<g>
	<path class="st3" d="M164.9,666.1c-10.3,0-18.7-8.4-18.7-18.7V19c0-10.3,8.4-18.7,18.7-18.7h476.4C651.7,0.3,660,8.7,660,19v628.4
		c0,10.3-8.4,18.7-18.7,18.7H164.9z"/>
	<path d="M641.3,1.1c9.9,0,17.9,8,17.9,17.9v628.4c0,9.9-8,17.9-17.9,17.9H164.9c-9.9,0-17.9-8-17.9-17.9V19c0-9.9,8-17.9,17.9-17.9
		H641.3 M641.3-0.5H164.9c-10.7,0-19.5,8.8-19.5,19.5v628.4c0,10.7,8.8,19.5,19.5,19.5h476.4c10.7,0,19.5-8.8,19.5-19.5V19
		C660.9,8.3,652.1-0.5,641.3-0.5L641.3-0.5z"/>
</g>
</svg>
