<?xml version="1.0" encoding="utf-8"?>
<!-- Generator: Adobe Illustrator 21.0.0, SVG Export Plug-In . SVG Version: 6.00 Build 0)  -->
<svg version="1.1" id="Capa_1" xmlns="http://www.w3.org/2000/svg" xmlns:xlink="http://www.w3.org/1999/xlink" x="0px" y="0px"
	 viewBox="0 0 750 800" style="enable-background:new 0 0 750 800;" xml:space="preserve">
<style type="text/css">
	.st0{fill:#666666;stroke:#000000;stroke-width:1.6253;stroke-miterlimit:10;}
	.st1{fill:#D346C9;stroke:#000000;stroke-width:1.6253;stroke-miterlimit:10;}
	.st2{fill:#CCCCCC;stroke:#000000;stroke-width:1.3469;stroke-miterlimit:10;}
	.st3{fill:#CCCCCC;}
	.st4{fill:#D346C9;stroke:#000000;stroke-width:1.4396;stroke-miterlimit:10;}
	.st5{fill:#D346C9;stroke:#000000;stroke-width:1.2857;stroke-miterlimit:10;}
	.st6{fill:#D346C9;}
</style>
<polyline class="st0" points="143.8,658 95.7,703.9 95.7,110.4 142.6,13 "/>
<path class="st1" d="M218.7,678.6c0,0,8.8,70.3-2.9,95.6l-5.6,12.7c-1.4,3.2,0.5,7.1,3.4,7.1h34.5c0.9,0,1.8-0.4,2.5-1.1
	c3.6-3.7,13.8-15.5,2.4-20.3c-0.4-0.2-0.9-0.2-1.3-0.2c-2.4,0.1-10.3,0.5-14,3.6c-4.4,3.6,5.9-75.8,0-97.4"/>
<path class="st1" d="M448.6,684.1c0,0,8.8,70.3-2.9,95.6l-5.6,12.7c-1.4,3.2,0.5,7.1,3.4,7.1H478c0.9,0,1.8-0.4,2.5-1.1
	c3.6-3.7,13.8-15.5,2.4-20.3c-0.4-0.2-0.9-0.2-1.3-0.2c-2.4,0.1-10.3,0.5-14,3.6c-4.4,3.6,5.9-75.8,0-97.4"/>
<polyline class="st0" points="646.3,662.4 143.8,658 95,704.8 617,704.8 646.3,662.4 "/>
<g>
	<path class="st3" d="M159.9,666.1c-10.3,0-18.7-8.4-18.7-18.7V19c0-10.3,8.4-18.7,18.7-18.7h476.4C646.7,0.3,655,8.7,655,19v628.4
		c0,10.3-8.4,18.7-18.7,18.7H159.9z"/>
	<path d="M636.3,1.1c9.9,0,17.9,8,17.9,17.9v628.4c0,9.9-8,17.9-17.9,17.9H159.9c-9.9,0-17.9-8-17.9-17.9V19c0-9.9,8-17.9,17.9-17.9
		H636.3 M636.3-0.5H159.9c-10.7,0-19.5,8.8-19.5,19.5v628.4c0,10.7,8.8,19.5,19.5,19.5h476.4c10.7,0,19.5-8.8,19.5-19.5V19
		C655.9,8.3,647.1-0.5,636.3-0.5L636.3-0.5z"/>
</g>
<path class="st4" d="M655.5,298.1c0,0,18.7,31.7,38.9,27.4c20.2-4.3,28.8-27.4,28.8-27.4s1.4-25.9,24-3.4c1.4,1.4,2.2,3.2,2.4,5.2
	c0.3,4.1-1.6,9.4-7.6,8.4c0,0-54.7,66.2-86.4,17.3"/>
<path class="st5" d="M84,337.4c3.1-11.7-10.3-15.4-10.3-15.4c-2.6-2.6-12.9,5.1-12.9,5.1c-19.3,3.9-14.1-10.3-14.1-10.3
	c0-10.3,72-24.4,72-24.4c2.6-11.6,0-21.9,0-21.9S0.5,283.4,15.9,330.9c0,0,12.9,24.4,45,16.7C60.9,347.6,78.9,356.6,84,337.4z"/>
</svg>
