<?xml version="1.0" encoding="utf-8"?>
<!-- Generator: Adobe Illustrator 21.0.0, SVG Export Plug-In . SVG Version: 6.00 Build 0)  -->
<svg version="1.1" id="Capa_1" xmlns="http://www.w3.org/2000/svg" xmlns:xlink="http://www.w3.org/1999/xlink" x="0px" y="0px"
	 viewBox="0 0 750 800" style="enable-background:new 0 0 750 800;" xml:space="preserve">
<style type="text/css">
	.st0{fill:#666666;stroke:#000000;stroke-width:1.6253;stroke-miterlimit:10;}
	.st1{fill:#D346C9;stroke:#000000;stroke-width:1.6253;stroke-miterlimit:10;}
	.st2{fill:#CCCCCC;stroke:#000000;stroke-width:1.3469;stroke-miterlimit:10;}
	.st3{fill:#CCCCCC;}
	.st4{fill:#D346C9;stroke:#000000;stroke-width:1.4396;stroke-miterlimit:10;}
	.st5{fill:#D346C9;stroke:#000000;stroke-width:1.2857;stroke-miterlimit:10;}
	.st6{fill:#D346C9;}
</style>
<polyline class="st0" points="136.3,658 88.2,703.9 88.2,110.4 135.1,13 "/>
<path class="st1" d="M211.2,678.6c0,0,8.8,70.3-2.9,95.6l-5.6,12.7c-1.4,3.2,0.5,7.1,3.4,7.1h34.5c0.9,0,1.8-0.4,2.5-1.1
	c3.6-3.7,13.8-15.5,2.4-20.3c-0.4-0.2-0.9-0.2-1.3-0.2c-2.4,0.1-10.3,0.5-14,3.6c-4.4,3.6,5.9-75.8,0-97.4"/>
<path class="st1" d="M441.1,684.1c0,0,8.8,70.3-2.9,95.6l-5.6,12.7c-1.4,3.2,0.5,7.1,3.4,7.1h34.5c0.9,0,1.8-0.4,2.5-1.1
	c3.6-3.7,13.8-15.5,2.4-20.3c-0.4-0.2-0.9-0.2-1.3-0.2c-2.4,0.1-10.3,0.5-14,3.6c-4.4,3.6,5.9-75.8,0-97.4"/>
<polyline class="st0" points="638.8,662.4 136.3,658 87.5,704.8 609.5,704.8 638.8,662.4 "/>
<g>
	<path class="st3" d="M152.4,666.1c-10.3,0-18.7-8.4-18.7-18.7V19c0-10.3,8.4-18.7,18.7-18.7h476.4c10.3,0,18.7,8.4,18.7,18.7v628.4
		c0,10.3-8.4,18.7-18.7,18.7H152.4z"/>
	<path d="M628.8,1.1c9.9,0,17.9,8,17.9,17.9v628.4c0,9.9-8,17.9-17.9,17.9H152.4c-9.9,0-17.9-8-17.9-17.9V19c0-9.9,8-17.9,17.9-17.9
		H628.8 M628.8-0.5H152.4c-10.7,0-19.5,8.8-19.5,19.5v628.4c0,10.7,8.8,19.5,19.5,19.5h476.4c10.7,0,19.5-8.8,19.5-19.5V19
		C648.4,8.3,639.6-0.5,628.8-0.5L628.8-0.5z"/>
</g>
<path class="st5" d="M79,337.9c3.1-11.7-10.3-15.4-10.3-15.4c-2.6-2.6-12.9,5.1-12.9,5.1c-19.3,3.9-14.1-10.3-14.1-10.3
	c0-10.3,72-24.4,72-24.4c2.6-11.6,0-21.9,0-21.9S-4.5,283.9,10.9,331.4c0,0,12.9,24.4,45,16.7C55.9,348.1,73.9,357.1,79,337.9z"/>
<g>
	<path class="st6" d="M663.8,285.5c-8.3,0-14.8-0.5-16.7-0.7v-17.9c0.4,0,1.1,0.1,1.8,0.2c3,0.3,8.6,1,15.2,1
		c24.7,0,39.8-8.8,43.5-25.6c5.8-26.1,3.8-41.2,3.8-41.4l0-0.1l0-0.1c0-0.1-3.3-8.9,0.1-13.7c1.4-2.1,4-3.1,7.5-3.1
		c0.9,0,1.9,0.1,3,0.2c0.1,0,14.6,2.3,17,10c1.3,4.2-1.2,9.2-7.4,15.1l-0.2,0.2l0,0.2c0,0.4-2.5,39-16.1,60.8
		C707.2,283.5,679.6,285.5,663.8,285.5z"/>
	<path d="M718.9,184.7c0.9,0,1.9,0.1,2.8,0.2c0.1,0,14.3,2.3,16.5,9.6c1.2,3.9-1.2,8.8-7.2,14.5l-0.4,0.3l0,0.5
		c0,0.4-2.5,38.8-16,60.5c-7.9,12.6-35.2,14.5-50.8,14.5c-7.6,0-13.7-0.4-16.1-0.6v-16.7c0.3,0,0.7,0.1,1.1,0.1c3,0.3,8.7,1,15.2,1
		c25.1,0,40.3-9,44.1-26c5.8-26.2,3.8-41,3.8-41.6l0-0.1l0-0.1c0-0.1-3.2-8.6,0-13.1C713.2,185.7,715.6,184.7,718.9,184.7
		 M718.9,183.5c-14.8,0-8.2,17.7-8.2,17.7s2.1,14.9-3.7,41.2c-4.7,21.3-26.7,25.1-42.9,25.1c-9,0-16.1-1.2-17.5-1.2
		c-0.1,0-0.1,0-0.2,0v19.1c0,0,7.4,0.7,17.3,0.7c17.8,0,43.9-2.3,51.9-15.1c13.9-22.2,16.2-61.1,16.2-61.1
		c22.4-21.2-10-26.2-10-26.2C720.9,183.6,719.8,183.5,718.9,183.5L718.9,183.5z"/>
</g>
</svg>
